# xmcd
#
# Track frame offsets:
#	150
#	20371
#	29182
#	38833
#	51344
#	70360
#	83385
#	93306
#	103246
#	114197
#	126761
#	130564
#	148511
#	158594
#	184544
#	198082
#	209746
#	224521
#	237010
#	250178
#
# Disc length: 3462
#
# Revision: 3
# Processed by: cddbd v1.5.1PL0 Copyright (c) Steve Scherf et al.
# Submitted via: ExactAudioCopy v0.90b4
# Normalized: r2:DSETVAR1
#
DISCID=140d8414
DTITLE=Various Artist - Country Gold vol. 3
DYEAR=1900
DGENRE=
TTITLE0=Gram Parson and Emmylou Harris - Love Hurts
TTITLE1=Sandy Posey - Born a Woman
TTITLE2=Dave Travis - Cowboy Boots
TTITLE3=Donna Fargo - Silver Wings
TTITLE4=Dave Travis - Sweet Country Music
TTITLE5=Donna Fargo - Daddy
TTITLE6=Barbara Mandrell - Kaw-Liga (Live)
TTITLE7=Buck Owens - Rhythm And Booze
TTITLE8=Carl Perkins - Dixie Friend
TTITLE9=Kitty Wells - Making Believe
TTITLE10=Charley Pride - Is Anybody Goin'To San Antone
TTITLE11=Ricky Nelson - Garden Party
TTITLE12=B.J. Thomas - Walkin' Back
TTITLE13=B. Lee, H. Williams... - Medley(Live), Jambalaya
TTITLE14=Freddy Fender - Baby I Want To Love You
TTITLE15=Don David Jr. - Country Kings
TTITLE16=Billie Jo Spears - Crystal Chandeliers
TTITLE17=Johnny Paycheck - Georgia In A Jug
TTITLE18=Roy Acuff - Tennessee Waltz
TTITLE19=Ned Miller - From A Jack To A King
EXTD=
EXTT0=Gram Parsons and Emmylou Harris\n
EXTT1=Sandy Posey\n
EXTT2=Dave Dudley\n
EXTT3=Freddy Fender\n
EXTT4=Dave Travis\n
EXTT5=Donna Fargo\n
EXTT6=Barbara Mandrel\n
EXTT7=Buck Owens\n
EXTT8=Carl Perkins\n
EXTT9=Kitty Wells\n
EXTT10=Charlez Pride\n
EXTT11=Ricky Nelson\n
EXTT12=B.J.Thomas\n
EXTT13=Medley\n
EXTT14=Freddy Fender\n
EXTT15=Don David Jr.\n
EXTT16=Billie To Spears\n
EXTT17=Johnny Paycheck\n
EXTT18=Roy Acuff\n
EXTT19=Ned Miller\n
PLAYORDER=
